<?xml version="1.0" encoding="UTF-8"?>
<!-- Generator: Adobe Illustrator 19.2.1, SVG Export Plug-In . SVG Version: 6.00 Build 0)  -->
<svg version="1.1" id="レイヤー_1" xmlns="http://www.w3.org/2000/svg" xmlns:xlink="http://www.w3.org/1999/xlink" x="0px" y="0px" viewBox="0 0 56.6 52.6" style="enable-background:new 0 0 56.6 52.6;" xml:space="preserve">
<style type="text/css">
	.st0{fill:#CAA75A;}
	.st1{fill-rule:evenodd;clip-rule:evenodd;fill:#FFFFFF;}
</style>
<g>
	<path class="st0" d="M56.6,22.7C56.6,9.5,44-0.6,28.3,0C12.7,0.7,0,11.9,0,25.1c0,13.2,12.7,23.4,28.3,22.7c0.8,0,1.5-0.1,2.3-0.2   v5c0,0,26-7.5,26-28.7v0C56.6,23.5,56.6,23.1,56.6,22.7z"/>
	<path class="st1" d="M44.2,21.7c0-1.3-0.2-2.5-0.6-3.7c-0.6-1.7-1.7-2.9-3.4-3.5c-0.9-0.3-1.8-0.4-2.8-0.4c-2.3,0.1-4.3,0.9-6,2.5   c-0.4,0.3-0.7,0.7-1,1.1c-0.1,0.2-0.3,0.5-0.3,0.5s-0.2-0.4-0.3-0.5c-0.1-0.2-0.2-0.4-0.3-0.6c-1-1.6-2.4-2.6-4.2-2.9   c-2.3-0.4-4.3,0.1-6.1,1.6c-0.6,0.5-1.1,1.2-1.7,1.8c-0.1,0.1-0.4,0.7-0.4,0.7l0-3.8h-3.6v20.2h3.6c0,0,0-6.9,0-10.2   c0-1.2,0.1-2.4,0.6-3.5c0.5-1.2,1.2-2.1,2.2-2.8c1.5-0.9,3-1.2,4.7-0.7c0.9,0.3,1.6,0.8,2,1.7c0.3,0.7,0.5,1.4,0.6,2.1v13.5h3.6V23   c0.1-0.8,0.3-1.5,0.6-2.3c0.5-1.1,1.3-2.1,2.3-2.8c1.2-0.8,2.6-0.9,4-0.7c0.9,0.1,1.6,0.6,2.1,1.4c0.5,0.6,0.7,1.4,0.8,2.1v13.9   h3.6V21.7C44.2,21.7,44.2,21.8,44.2,21.7z"/>
</g>
</svg>