<?xml version="1.0" encoding="UTF-8"?>
<!-- Generator: Adobe Illustrator 19.2.1, SVG Export Plug-In . SVG Version: 6.00 Build 0)  -->
<svg version="1.1" id="レイヤー_1" xmlns="http://www.w3.org/2000/svg" xmlns:xlink="http://www.w3.org/1999/xlink" x="0px" y="0px" viewBox="0 0 170.4 170.4" style="enable-background:new 0 0 170.4 170.4;" xml:space="preserve">
<style type="text/css">
	.st0{fill:#00C300;}
	.st1{fill:#FFFFFF;}
</style>
<g>
	<path class="st0" d="M139.6,0.2L31.1,0C14,0,0.2,13.8,0.2,30.8L0,139.3c0,17,13.8,30.9,30.8,30.9l108.5,0.2   c17,0,30.9-13.8,30.9-30.8l0.2-108.5C170.4,14,156.6,0.2,139.6,0.2z"/>
	<g>
		<g>
			<path class="st1" d="M147.3,77.7c0-27.8-27.8-50.3-62-50.3c-34.2,0-62,22.6-62,50.3c0,24.9,22.1,45.7,51.9,49.7     c2,0.4,4.8,1.3,5.5,3.1c0.6,1.6,0.4,4,0.2,5.6c0,0-0.7,4.4-0.9,5.3c-0.3,1.6-1.2,6.1,5.4,3.3c6.6-2.8,35.7-21,48.7-36h0     C143,98.8,147.3,88.8,147.3,77.7z M60.9,94.2H48.6c-1.8,0-3.3-1.5-3.3-3.3V66.3c0-1.8,1.5-3.3,3.3-3.3c1.8,0,3.3,1.5,3.3,3.3     v21.4h9.1c1.8,0,3.3,1.5,3.3,3.3C64.2,92.8,62.7,94.2,60.9,94.2z M73.7,91c0,1.8-1.5,3.3-3.3,3.3c-1.8,0-3.3-1.5-3.3-3.3V66.3     c0-1.8,1.5-3.3,3.3-3.3c1.8,0,3.3,1.5,3.3,3.3V91z M103.4,91c0,1.4-0.9,2.6-2.2,3.1c-0.3,0.1-0.7,0.2-1,0.2c-1,0-2-0.5-2.6-1.3     L84.9,75.7V91c0,1.8-1.5,3.3-3.3,3.3c-1.8,0-3.3-1.5-3.3-3.3V66.3c0-1.4,0.9-2.6,2.2-3.1c0.3-0.1,0.7-0.2,1-0.2     c1,0,2,0.5,2.6,1.3l12.6,17.2V66.3c0-1.8,1.5-3.3,3.3-3.3c1.8,0,3.3,1.5,3.3,3.3V91z M123.3,75.4c1.8,0,3.3,1.5,3.3,3.3     c0,1.8-1.5,3.3-3.3,3.3h-9.1v5.8h9.1c1.8,0,3.3,1.5,3.3,3.3c0,1.8-1.5,3.3-3.3,3.3H111c-1.8,0-3.3-1.5-3.3-3.3V78.7c0,0,0,0,0,0     V66.3c0-1.8,1.5-3.3,3.3-3.3h12.3c1.8,0,3.3,1.5,3.3,3.3c0,1.8-1.5,3.3-3.3,3.3h-9.1v5.8H123.3z"/>
		</g>
	</g>
</g>
</svg>